<?xml version="1.0" encoding="UTF-8" standalone="no"?>
<!-- Created with Inkscape (http://www.inkscape.org/) -->

<svg
   width="225mm"
   height="224.99998mm"
   viewBox="0 0 225 224.99999"
   version="1.1"
   id="svg1"
   xml:space="preserve"
   xmlns="http://www.w3.org/2000/svg"
   xmlns:svg="http://www.w3.org/2000/svg"><defs
     id="defs1" /><g
     id="layer1"
     transform="translate(9.2592769,-50.117523)"
     style="display:inline"><circle
       style="display:inline;fill:#183028;fill-opacity:1;stroke-width:1;stroke-linecap:round;stroke-linejoin:round;stroke-dasharray:none;paint-order:stroke fill markers"
       id="path2"
       cx="103.24072"
       cy="162.61752"
       r="112.5" /><g
       id="g4"
       transform="translate(-2.9838022,4.3966966)"><path
         id="rect3-1-1"
         style="color:#000000;fill:#c5e86c;stroke-linecap:round;stroke-linejoin:round;-inkscape-stroke:none;paint-order:stroke fill markers"
         d="m 95.357532,-62.746132 a 17.50175,17.50175 0 0 0 17.499708,17.500223 h 89.42607 a 17.50175,17.50175 0 0 0 15.65227,-10.609688 17.50175,17.50175 0 0 0 3.14865,-9.554455 V -101.47658 A 17.50175,17.50175 0 0 0 203.584,-118.97681 h -0.3731 a 17.50175,17.50175 0 0 0 -17.37465,16.38867 c 1.03473,3.556176 1.54225,4.920708 2.37505,6.373766 2.19569,3.830976 5.49718,6.78019 9.44541,8.437728 0.71722,0.30112 3.19315,1.085746 5.50199,1.743563 3.46882,0.988299 4.25425,1.252708 4.52273,1.522388 0.33889,0.340358 0.4721,0.755652 0.3886,1.211812 -0.1196,0.653019 -0.46757,0.799781 -4.92838,2.076359 -4.56465,1.306319 -6.16473,1.909898 -7.98762,3.012736 -3.66258,2.215838 -6.57618,5.670512 -8.11062,9.616467 -0.25685,0.66054 -0.98483,3.02502 -1.61799,5.254977 -1.22012,4.297294 -1.3304,4.54679 -2.08669,4.71289 -0.43938,0.0966 -1.14012,-0.213749 -1.33842,-0.592728 -0.0784,-0.1498 -0.69113,-2.189206 -1.36219,-4.532023 -0.67111,-2.342817 -1.44405,-4.77715 -1.71721,-5.409489 -1.9727,-4.566774 -5.61118,-8.224368 -10.18336,-10.236585 -0.53451,-0.235227 -2.0084,-0.710436 -3.69125,-1.222664 h -52.18906 a 17.50175,17.50175 0 0 0 -17.499708,17.499707 z"
         transform="rotate(90)" /><path
         style="color:#000000;fill:#c5e86c;stroke-linecap:round;stroke-linejoin:round;-inkscape-stroke:none;paint-order:stroke fill markers"
         d="m 149.33008,95.357422 a 17.50175,17.50175 0 0 0 -17.5,17.499998 v 89.42578 a 17.50175,17.50175 0 0 0 17.5,17.5 h 0.37304 a 17.50175,17.50175 0 0 0 17.5,-17.5 v -89.42578 a 17.50175,17.50175 0 0 0 -17.5,-17.499998 z"
         id="rect3-1" /></g></g></svg>
